<svg xmlns="http://www.w3.org/2000/svg" xmlns:xlink="http://www.w3.org/1999/xlink" version="1.1" x="0px" y="0px" viewBox="0 0 100 125" style="enable-background:new 0 0 100 100;" xml:space="preserve"><g><path d="M50,4C24.6,4,4,24.6,4,50s20.6,46,46,46s46-20.6,46-46S75.4,4,50,4z M90,51h4c-0.5,23.5-19.5,42.4-43,43v-4   c0-0.6-0.4-1-1-1s-1,0.4-1,1v4C25.5,93.4,6.6,74.5,6,51h4c0.6,0,1-0.4,1-1s-0.4-1-1-1H6C6.6,25.5,25.5,6.6,49,6v4c0,0.6,0.4,1,1,1   s1-0.4,1-1V6c23.5,0.5,42.4,19.5,43,43h-4c-0.6,0-1,0.4-1,1S89.4,51,90,51z"/><path d="M50,53.5c1.9,0,3.5-1.6,3.5-3.5s-1.6-3.5-3.5-3.5s-3.5,1.6-3.5,3.5S48.1,53.5,50,53.5z M50,48.5c0.8,0,1.5,0.7,1.5,1.5   s-0.7,1.5-1.5,1.5s-1.5-0.7-1.5-1.5S49.2,48.5,50,48.5z"/><path d="M74.6,24.1l-35,15c-0.2,0.1-0.4,0.3-0.5,0.5l-15,35c-0.2,0.4-0.1,0.8,0.2,1.1c0.2,0.2,0.4,0.3,0.7,0.3c0.1,0,0.3,0,0.4-0.1   l35-15c0.2-0.1,0.4-0.3,0.5-0.5l15-35c0.2-0.4,0.1-0.8-0.2-1.1S75,23.9,74.6,24.1z M59.2,59.2L26.9,73.1l13.9-32.3l32.3-13.9   L59.2,59.2z"/></g><text x="0" y="115" fill="#000000" font-size="5px" font-weight="bold" font-family="'Helvetica Neue', Helvetica, Arial-Unicode, Arial, Sans-serif">Created by Idwar</text><text x="0" y="120" fill="#000000" font-size="5px" font-weight="bold" font-family="'Helvetica Neue', Helvetica, Arial-Unicode, Arial, Sans-serif">from the Noun Project</text></svg>