<svg xmlns="http://www.w3.org/2000/svg" xmlns:xlink="http://www.w3.org/1999/xlink" xmlns:serif="http://www.serif.com/" viewBox="0 0 32 40" version="1.1" xml:space="preserve" style="" x="0px" y="0px" fill-rule="evenodd" clip-rule="evenodd" stroke-linejoin="round" stroke-miterlimit="1.41421"><rect serif:id="compass discover adventure gear" x="0" y="0" width="32" height="32" style="" fill="none"/><path d="M16.089,3.009c0.307,0.043 0.386,0.101 0.523,0.208c0.625,0.49 0.384,1.785 -0.652,1.788c-0.036,0 -0.072,0.001 -0.107,0.001c-2.888,0.041 -5.717,1.253 -7.732,3.316c-3.226,3.305 -4.072,8.694 -1.834,12.873c1.596,2.978 4.615,5.149 7.964,5.683c4.443,0.708 9.21,-1.558 11.421,-5.625c1.908,-3.51 1.709,-8.064 -0.571,-11.423c-1.285,-1.893 -3.158,-3.358 -5.333,-4.158l-0.088,-0.037c-0.273,-0.148 -0.327,-0.229 -0.419,-0.377c-0.421,-0.685 0.274,-1.806 1.255,-1.443c4.785,1.774 8.168,6.388 8.463,11.431c0.235,4.009 -1.505,8.087 -4.592,10.698c-3.378,2.857 -8.269,3.827 -12.524,2.401c-4.422,-1.483 -7.902,-5.486 -8.691,-10.155c-0.824,-4.868 1.361,-10.133 5.551,-12.964c2.125,-1.436 4.674,-2.218 7.271,-2.222c0.031,0.002 0.063,0.003 0.095,0.005Zm5.652,6.345c0.216,0.026 0.273,0.055 0.381,0.112c0.41,0.217 0.631,0.741 0.485,1.192c-0.018,0.057 -0.026,0.07 -0.049,0.124l-3.659,7.66c-0.156,0.304 -0.246,0.355 -0.472,0.472l-7.66,3.658c-0.468,0.205 -0.599,0.102 -0.777,0.037c-0.476,-0.176 -0.766,-0.753 -0.606,-1.247c0.018,-0.056 0.025,-0.069 0.049,-0.123l3.659,-7.661c0.156,-0.303 0.245,-0.355 0.471,-0.471l7.661,-3.659c0.162,-0.071 0.336,-0.104 0.517,-0.094Zm-6.996,5.406l-2.287,4.787l4.788,-2.286l2.286,-4.788c-1.595,0.762 -3.191,1.524 -4.787,2.287Z" style="" fill-rule="nonzero"/><text x="0" y="47" fill="#000000" font-size="5px" font-weight="bold" font-family="'Helvetica Neue', Helvetica, Arial-Unicode, Arial, Sans-serif">Created by Bombasticon Studio</text><text x="0" y="52" fill="#000000" font-size="5px" font-weight="bold" font-family="'Helvetica Neue', Helvetica, Arial-Unicode, Arial, Sans-serif">from the Noun Project</text></svg>